<svg width="26" height="26" viewBox="0 0 26 26" fill="none" xmlns="http://www.w3.org/2000/svg">
<path fill-rule="evenodd" clip-rule="evenodd" d="M5.10308 3.70834H2.16667V4.95834H4.6297L7.68711 15.8216L7.81536 16.2773H8.28874H20.5991H21.0616L21.1968 15.835L23.8965 7.007L24.1435 6.19922H23.2988H8.28874V7.44922H22.4541L20.1367 15.0273H8.76212L5.70471 4.16402L5.57646 3.70834H5.10308ZM10.2143 18.5774C9.53379 18.5774 8.98214 19.129 8.98214 19.8095C8.98214 20.49 9.53379 21.0417 10.2143 21.0417C10.8948 21.0417 11.4464 20.49 11.4464 19.8095C11.4464 19.129 10.8948 18.5774 10.2143 18.5774ZM7.73214 19.8095C7.73214 18.4387 8.84343 17.3274 10.2143 17.3274C11.5851 17.3274 12.6964 18.4387 12.6964 19.8095C12.6964 21.1804 11.5851 22.2917 10.2143 22.2917C8.84343 22.2917 7.73214 21.1804 7.73214 19.8095ZM18.881 18.5774C18.2005 18.5774 17.6488 19.129 17.6488 19.8095C17.6488 20.49 18.2005 21.0417 18.881 21.0417C19.5614 21.0417 20.1131 20.49 20.1131 19.8095C20.1131 19.129 19.5614 18.5774 18.881 18.5774ZM16.3988 19.8095C16.3988 18.4387 17.5101 17.3274 18.881 17.3274C20.2518 17.3274 21.3631 18.4387 21.3631 19.8095C21.3631 21.1804 20.2518 22.2917 18.881 22.2917C17.5101 22.2917 16.3988 21.1804 16.3988 19.8095Z" fill="white"/>
<path d="M14.3778 10.6277L16.4265 10.6314C16.6336 10.6316 16.8013 10.7997 16.8011 11.0068C16.8008 11.2139 16.6328 11.3816 16.4257 11.3814L14.3782 11.3777L14.3794 13.4264C14.3794 13.6335 14.2116 13.8015 14.0045 13.8016C13.7974 13.8017 13.6294 13.6338 13.6294 13.4267L13.6282 11.3764L11.5796 11.3728C11.3725 11.3725 11.2048 11.2044 11.2051 10.9973C11.2053 10.7902 11.3734 10.6225 11.5805 10.6228L13.6278 10.6264L13.6267 8.57936C13.6266 8.37225 13.7944 8.2043 14.0015 8.20422C14.2086 8.20415 14.3766 8.37198 14.3767 8.57909L14.3778 10.6277H14.3778Z" fill="white"/>
</svg>
