<svg width="41" height="42" viewBox="0 0 41 42" fill="none" xmlns="http://www.w3.org/2000/svg">
<path fill-rule="evenodd" clip-rule="evenodd" d="M8.12511 6.375H3.55109V7.625H7.64712L12.4842 25.4481L12.6094 25.9094H13.0874H32.2632H32.7305L32.8627 25.4612L37.0679 11.2005L37.3044 10.3987H36.4685H13.0874V11.6487H35.6325L31.7959 24.6594H13.5654L8.72829 6.8363L8.60309 6.375H8.12511ZM16.0868 29.625C14.8555 29.625 13.8189 30.6667 13.8189 32C13.8189 33.3333 14.8555 34.375 16.0868 34.375C17.3181 34.375 18.3546 33.3333 18.3546 32C18.3546 30.6667 17.3181 29.625 16.0868 29.625ZM12.5689 32C12.5689 30.0196 14.1227 28.375 16.0868 28.375C18.0509 28.375 19.6046 30.0196 19.6046 32C19.6046 33.9804 18.0509 35.625 16.0868 35.625C14.1227 35.625 12.5689 33.9804 12.5689 32ZM29.5868 29.625C28.3555 29.625 27.3189 30.6667 27.3189 32C27.3189 33.3333 28.3555 34.375 29.5868 34.375C30.8181 34.375 31.8546 33.3333 31.8546 32C31.8546 30.6667 30.8181 29.625 29.5868 29.625ZM26.0689 32C26.0689 30.0196 27.6227 28.375 29.5868 28.375C31.5509 28.375 33.1046 30.0196 33.1046 32C33.1046 33.9804 31.5509 35.625 29.5868 35.625C27.6227 35.625 26.0689 33.9804 26.0689 32Z" fill="#161412"/>
</svg>
