<svg width="27" height="27" viewBox="0 0 27 27" fill="none" xmlns="http://www.w3.org/2000/svg">
<path fill-rule="evenodd" clip-rule="evenodd" d="M5.60307 4.41982H2.66667V5.66982H5.1297L8.18711 16.5331L8.31535 16.9887H8.78873H21.0991H21.5616L21.6968 16.5465L24.3965 7.71847L24.6435 6.91069H23.7988H8.78873V8.16069H22.9541L20.6367 15.7387H9.26211L6.2047 4.87549L6.07645 4.41982H5.60307ZM10.7143 19.2889C10.0338 19.2889 9.48213 19.8405 9.48213 20.521C9.48213 21.2015 10.0338 21.7531 10.7143 21.7531C11.3948 21.7531 11.9464 21.2015 11.9464 20.521C11.9464 19.8405 11.3948 19.2889 10.7143 19.2889ZM8.23213 20.521C8.23213 19.1502 9.34343 18.0389 10.7143 18.0389C12.0851 18.0389 13.1964 19.1502 13.1964 20.521C13.1964 21.8919 12.0851 23.0031 10.7143 23.0031C9.34343 23.0031 8.23213 21.8919 8.23213 20.521ZM19.3809 19.2889C18.7005 19.2889 18.1488 19.8405 18.1488 20.521C18.1488 21.2015 18.7005 21.7531 19.3809 21.7531C20.0614 21.7531 20.6131 21.2015 20.6131 20.521C20.6131 19.8405 20.0614 19.2889 19.3809 19.2889ZM16.8988 20.521C16.8988 19.1502 18.0101 18.0389 19.3809 18.0389C20.7518 18.0389 21.8631 19.1502 21.8631 20.521C21.8631 21.8919 20.7518 23.0031 19.3809 23.0031C18.0101 23.0031 16.8988 21.8919 16.8988 20.521Z" fill="white"/>
</svg>
